<svg 
xmlns="http://www.w3.org/2000/svg" 
version="1.1" 
xmlns:xlink="http://www.w3.org/1999/xlink" 
xmlns:svgjs="http://svgjs.dev/svgjs" 
width="308.7612359841165"
height="304.915625"
   
viewBox="0 0 2000 1247">
<g transform="matrix(1,0,0,1,-1.2121212121212466,0.504858299595071)">
<svg viewBox="0 0 396 247" 
data-background-color="#ffffff" 
preserveAspectRatio="xMidYMid meet" 
height="1247" width="2000" 
xmlns="http://www.w3.org/2000/svg" 
xmlns:xlink="http://www.w3.org/1999/xlink">
<g id="tight-bounds" 
transform="matrix(1,0,0,1,0.2400000000000091,-0.09999999999999432)">
<svg viewBox="0 0 395.52 247.2" 
height="247.2" 
width="395.52"><g>
<svg></svg>
</g><g><svg 
viewBox="0 0 395.52 247.2" 
height="247.2" 
width="395.52">
<g 
transform="matrix(1,0,0,1,75.54432000000001,49.578521263849)">
<svg viewBox="0 0 244.43135999999996 148.042957472302" 
height="148.042957472302" width="244.43135999999996">
<g><svg 
viewBox="0 0 244.43135999999996 148.042957472302" 
height="148.042957472302" 
width="244.43135999999996"><g>
<svg viewBox="0 0 244.43135999999996 148.042957472302" 
height="148.042957472302" 
width="244.43135999999996"><g><svg viewBox="0 0 244.43135999999996 148.042957472302" height="148.042957472302" width="244.43135999999996"><g id="textblocktransform"><svg viewBox="0 0 244.43135999999996 148.042957472302" height="148.042957472302" width="244.43135999999996" id="textblock"><g><svg viewBox="0 0 244.43135999999996 148.042957472302" height="148.042957472302" width="244.43135999999996"><g transform="matrix(1,0,0,1,0,0)"><svg width="244.43135999999996" viewBox="1.440000057220459 -35.54999923706055 59.5 36.040000915527344" height="148.042957472302" data-palette-color="#000000"><path d="M16.09-10.4L16.09-35.55 20.58-35.55 20.58-10.38Q20.58-5.27 17.98-2.39 15.38 0.49 10.99 0.49L10.99 0.49Q6.47 0.49 3.96-2.25 1.44-4.98 1.44-9.81L1.44-9.81 5.91-9.81Q5.91-6.76 7.25-5.05 8.59-3.34 10.99-3.34L10.99-3.34Q13.31-3.34 14.7-5.2 16.09-7.06 16.09-10.4L16.09-10.4ZM30.37-35.55L34.79-11.21 35.25-7.23 35.96-10.74 41.65-35.55 45.38-35.55 50.9-10.74 51.61-7.13 52.12-11.23 56.47-35.55 60.94-35.55 53.85 0 49.83 0 43.89-25.9 43.53-28 43.16-25.9 37.01 0 32.96 0 25.9-35.55 30.37-35.55Z" opacity="1" transform="matrix(1,0,0,1,0,0)" fill="#ffffff" class="undefined-text-0" data-fill-palette-color="primary" id="text-0"></path></svg></g></svg></g></svg></g></svg></g></svg></g></svg></g></svg></g><g><path d="M0 123.6c0-68.262 55.338-123.6 123.6-123.6 31.995 0 61.151 12.157 83.1 32.104h-10.293c-19.976-15.916-45.281-25.428-72.807-25.429-64.576 0-116.925 52.349-116.925 116.925 0 64.576 52.349 116.925 116.925 116.925 27.527 0 52.832-9.512 72.807-25.429l10.293 0c-21.949 19.947-51.105 32.104-83.1 32.104-68.262 0-123.6-55.338-123.6-123.6z" fill="#ffffff" stroke="transparent" data-fill-palette-color="tertiary"></path></g></svg></g><defs></defs></svg><rect width="395.52" height="247.2" fill="none" stroke="none" visibility="hidden"></rect></g></svg></g></svg>